<?xml version="1.0" encoding="UTF-8" standalone="no"?>
<svg
   xmlns:dc="http://purl.org/dc/elements/1.1/"
   xmlns:cc="http://creativecommons.org/ns#"
   xmlns:rdf="http://www.w3.org/1999/02/22-rdf-syntax-ns#"
   xmlns:svg="http://www.w3.org/2000/svg"
   xmlns="http://www.w3.org/2000/svg"
   viewBox="0 0 625 375"
   height="375"
   width="625"
   xml:space="preserve"
   version="1.1"
   id="svg2"><metadata
     id="metadata8"><rdf:RDF><cc:Work
         rdf:about=""><dc:format>image/svg+xml</dc:format><dc:type
           rdf:resource="http://purl.org/dc/dcmitype/StillImage" /></cc:Work></rdf:RDF></metadata><defs
     id="defs6"><clipPath
       id="clipPath32"
       clipPathUnits="userSpaceOnUse"><path
         id="path34"
         d="M 0,300 500,300 500,0 0,0 0,300 Z" /></clipPath></defs><g
     transform="matrix(1.25,0,0,-1.25,0,375)"
     id="g10"><g
       transform="translate(68.7029,99.627)"
       id="g12"><path
         id="path14"
         style="fill:#ffffff;fill-opacity:1;fill-rule:nonzero;stroke:none"
         d="m 0,0 0,48.838 -33.494,0 0,-48.838 -27.389,0 0,114.34 27.389,0 0,-44.218 33.494,0 0,44.218 27.389,0 L 27.389,0 0,0 Z" /></g><g
       transform="translate(143.6131,144.0103)"
       id="g16"><path
         id="path18"
         style="fill:#ffffff;fill-opacity:1;fill-rule:nonzero;stroke:none"
         d="m 0,0 24.419,0 -11.715,48.343 -0.825,0 L 0,0 Z m 28.873,-19.799 -33.163,0 -5.94,-24.584 -28.874,0 35.144,114.34 33.163,0 34.979,-114.34 -29.369,0 -5.94,24.584 z" /></g><g
       transform="translate(216.2127,99.627)"
       id="g20"><path
         id="path22"
         style="fill:#ffffff;fill-opacity:1;fill-rule:nonzero;stroke:none"
         d="m 0,0 0,114.34 27.389,0 0,-92.726 44.713,0 L 69.132,0 0,0 Z" /></g><g
       transform="translate(296.5662,99.627)"
       id="g24"><path
         id="path26"
         style="fill:#ffffff;fill-opacity:1;fill-rule:nonzero;stroke:none"
         d="m 0,0 0,114.34 27.389,0 0,-92.726 44.713,0 L 69.132,0 0,0 Z" /></g><g
       id="g28"><g
         clip-path="url(#clipPath32)"
         id="g30"><g
           transform="translate(23.8572,223.8858)"
           id="g36"><path
             id="path38"
             style="fill:#ffffff;fill-opacity:1;fill-rule:nonzero;stroke:none"
             d="m 0,0 c -7.841,0 -13.791,2.73 -17.781,6.651 l 4.969,5.46 c 3.431,-3.15 7.492,-4.97 12.462,-4.97 5.181,0 8.961,2.52 8.961,7.211 0,3.99 -2.1,5.88 -9.451,8.19 -10.361,3.151 -14.632,7.211 -14.632,14.562 0,8.191 7.141,13.372 16.592,13.372 7.071,0 11.831,-2.101 15.962,-5.951 l -4.69,-5.321 c -3.29,2.941 -6.721,4.201 -10.642,4.201 -4.48,0 -7.63,-1.961 -7.63,-5.741 0,-3.5 1.75,-5.04 9.801,-7.56 C 12.392,27.373 18.272,23.943 18.272,14.912 18.272,6.161 11.411,0 0,0" /></g><g
           transform="translate(68.5174,234.9473)"
           id="g40"><path
             id="path42"
             style="fill:#ffffff;fill-opacity:1;fill-rule:nonzero;stroke:none"
             d="m 0,0 0,7.42 -3.15,0 c -6.931,0 -9.382,-2.31 -9.382,-6.37 0,-3.64 1.68,-5.601 5.39,-5.601 2.941,0 5.391,1.68 7.142,4.551 m 8.681,-0.42 c 0,-2.801 0.769,-3.851 2.59,-4.551 l -1.96,-5.95 c -3.921,0.35 -6.582,1.75 -7.981,4.97 -2.661,-3.5 -6.791,-5.111 -11.271,-5.111 -7.561,0 -12.182,4.691 -12.182,11.622 0,7.841 6.231,12.251 17.572,12.251 l 4.551,0 0,2.1 c 0,4.691 -2.171,6.301 -7.352,6.301 -2.379,0 -5.879,-0.56 -9.661,-1.89 l -2.17,6.16 c 4.691,1.75 9.381,2.591 13.162,2.591 10.431,0 14.702,-4.481 14.702,-12.601 l 0,-15.892 z" /></g><g
           transform="translate(88.0447,224.9361)"
           id="g44"><path
             id="path46"
             style="fill:#ffffff;fill-opacity:1;fill-rule:nonzero;stroke:none"
             d="m 0,0 0,37.034 7.771,0 0.63,-4.62 c 3.151,3.78 6.861,5.67 10.851,5.67 4.761,0 7.631,-2.03 8.961,-5.67 3.15,3.64 7.141,5.67 11.061,5.67 6.791,0 9.801,-4.061 9.801,-10.991 l 0,-27.093 -8.961,0 0,25.903 c 0,3.92 -1.12,5.46 -3.99,5.46 -2.66,0 -5.25,-2.24 -7.07,-5.11 l 0,-26.253 -8.961,0 0,26.042 c 0,3.851 -1.191,5.321 -3.991,5.321 -2.661,0 -5.321,-2.24 -7.141,-5.11 L 8.961,0 0,0 Z" /></g><g
           transform="translate(166.657,234.9473)"
           id="g48"><path
             id="path50"
             style="fill:#ffffff;fill-opacity:1;fill-rule:nonzero;stroke:none"
             d="m 0,0 0,7.42 -3.15,0 c -6.931,0 -9.381,-2.31 -9.381,-6.37 0,-3.64 1.679,-5.601 5.389,-5.601 2.941,0 5.391,1.68 7.142,4.551 m 8.681,-0.42 c 0,-2.801 0.769,-3.851 2.59,-4.551 l -1.96,-5.95 c -3.92,0.35 -6.582,1.75 -7.981,4.97 -2.66,-3.5 -6.791,-5.111 -11.271,-5.111 -7.561,0 -12.182,4.691 -12.182,11.622 0,7.841 6.23,12.251 17.572,12.251 l 4.551,0 0,2.1 c 0,4.691 -2.171,6.301 -7.352,6.301 -2.379,0 -5.879,-0.56 -9.66,-1.89 l -2.171,6.16 c 4.691,1.75 9.381,2.591 13.162,2.591 10.431,0 14.702,-4.481 14.702,-12.601 l 0,-15.892 z" /></g><g
           transform="translate(207.3269,251.1187)"
           id="g52"><path
             id="path54"
             style="fill:#ffffff;fill-opacity:1;fill-rule:nonzero;stroke:none"
             d="m 0,0 c 0,3.71 -1.4,5.181 -4.551,5.181 -3.08,0 -5.6,-2.381 -7.631,-5.181 l 0,-26.183 -8.961,0 0,37.034 7.772,0 0.63,-4.62 c 3.15,3.71 7.28,5.67 11.621,5.67 6.86,0 10.081,-4.06 10.081,-10.991 l 0,-27.093 -8.961,0 L 0,0 Z" /></g><g
           transform="translate(248.2068,226.6861)"
           id="g56"><path
             id="path58"
             style="fill:#ffffff;fill-opacity:1;fill-rule:nonzero;stroke:none"
             d="m 0,0 c -2.521,-1.89 -6.091,-2.8 -9.241,-2.8 -8.261,0.07 -11.201,4.76 -11.201,12.321 l 0,19.392 -5.671,0 0,6.371 5.671,0 0,8.191 8.961,1.05 0,-9.241 9.031,0 -0.981,-6.371 -8.05,0 0,-19.392 c 0,-3.64 1.19,-5.11 3.919,-5.11 1.471,0 2.801,0.42 4.412,1.4 L 0,0 Z" /></g><g
           transform="translate(253.3836,224.9361)"
           id="g60"><path
             id="path62"
             style="fill:#ffffff;fill-opacity:1;fill-rule:nonzero;stroke:none"
             d="m 0,0 0,51.805 8.961,0.91 0,-19.882 c 3.011,3.361 6.791,5.251 11.061,5.251 6.861,0 10.082,-4.061 10.082,-10.991 l 0,-27.093 -8.961,0 0,26.183 c 0,3.71 -1.401,5.18 -4.551,5.18 -3.08,0 -5.601,-2.38 -7.631,-5.18 L 8.961,0 0,0 Z" /></g><g
           transform="translate(312.9558,234.9473)"
           id="g64"><path
             id="path66"
             style="fill:#ffffff;fill-opacity:1;fill-rule:nonzero;stroke:none"
             d="m 0,0 0,7.42 -3.15,0 c -6.931,0 -9.381,-2.31 -9.381,-6.37 0,-3.64 1.679,-5.601 5.389,-5.601 2.941,0 5.391,1.68 7.142,4.551 m 8.681,-0.42 c 0,-2.801 0.769,-3.851 2.59,-4.551 l -1.96,-5.95 c -3.92,0.35 -6.582,1.75 -7.981,4.97 -2.66,-3.5 -6.791,-5.111 -11.271,-5.111 -7.561,0 -12.182,4.691 -12.182,11.622 0,7.841 6.23,12.251 17.572,12.251 l 4.551,0 0,2.1 c 0,4.691 -2.171,6.301 -7.352,6.301 -2.379,0 -5.879,-0.56 -9.66,-1.89 l -2.171,6.16 c 4.691,1.75 9.381,2.591 13.162,2.591 10.431,0 14.702,-4.481 14.702,-12.601 l 0,-15.892 z" /></g><g
           transform="translate(375.0952,169.9475)"
           id="g68"><path
             id="path70"
             style="fill:#ffffff;fill-opacity:1;fill-rule:nonzero;stroke:none"
             d="m 0,0 44.678,0.032 14.723,43.648 13.643,-43.781 45,0.011 L 83.166,-28.43 95.805,-69.885 58.95,-44.971 22.418,-70.083 34.859,-28.066 0,0 Z" /></g><g
           transform="translate(145.3687,56.1982)"
           id="g72"><path
             id="path74"
             style="fill:#ffffff;fill-opacity:1;fill-rule:nonzero;stroke:none"
             d="m 0,0 c -0.381,0.489 -0.836,0.852 -1.367,1.086 -0.531,0.234 -1.11,0.351 -1.735,0.351 -0.885,0 -1.69,-0.213 -2.414,-0.64 C -6.24,0.37 -6.889,-0.2 -7.461,-0.914 c -0.573,-0.714 -1.073,-1.531 -1.5,-2.453 -0.428,-0.922 -0.779,-1.88 -1.055,-2.875 -0.276,-0.995 -0.482,-1.985 -0.617,-2.969 -0.136,-0.984 -0.203,-1.893 -0.203,-2.727 0,-1.051 0.111,-1.956 0.336,-2.71 0.224,-0.755 0.531,-1.375 0.922,-1.86 0.39,-0.484 0.851,-0.841 1.383,-1.07 0.531,-0.23 1.098,-0.344 1.703,-0.344 0.885,0 1.689,0.214 2.414,0.641 0.724,0.427 1.372,0.997 1.945,1.711 0.572,0.714 1.071,1.531 1.492,2.453 0.422,0.922 0.771,1.878 1.047,2.867 0.276,0.989 0.482,1.977 0.617,2.961 0.135,0.984 0.204,1.898 0.204,2.742 0,1.042 -0.11,1.938 -0.329,2.688 C 0.68,-1.109 0.38,-0.489 0,0" /></g><g
           transform="translate(210.3218,52.6748)"
           id="g76"><path
             id="path78"
             style="fill:#ffffff;fill-opacity:1;fill-rule:nonzero;stroke:none"
             d="M 0,0 C -0.047,0.411 -0.089,0.81 -0.125,1.195 -0.162,1.581 -0.193,1.956 -0.219,2.32 -0.245,2.685 -0.264,3.06 -0.273,3.445 -0.43,3.06 -0.586,2.703 -0.742,2.375 -0.898,2.047 -1.065,1.714 -1.242,1.375 -1.42,1.036 -1.615,0.677 -1.828,0.297 c -0.214,-0.38 -0.461,-0.81 -0.742,-1.31 l -3.172,-5.662 6.469,0 -0.579,5.365 C 0.096,-0.841 0.047,-0.411 0,0" /></g><g
           transform="translate(272.1113,51.8389)"
           id="g80"><path
             id="path82"
             style="fill:#ffffff;fill-opacity:1;fill-rule:nonzero;stroke:none"
             d="m 0,0 c -0.542,0 -1.042,-0.156 -1.5,-0.469 -0.459,-0.312 -0.873,-0.729 -1.242,-1.25 -0.37,-0.52 -0.696,-1.117 -0.977,-1.789 C -4,-4.18 -4.237,-4.875 -4.43,-5.594 -4.623,-6.312 -4.766,-7.028 -4.859,-7.742 -4.953,-8.456 -5,-9.109 -5,-9.703 c 0,-1.302 0.219,-2.235 0.656,-2.797 0.438,-0.563 1.041,-0.844 1.813,-0.844 0.572,0 1.091,0.164 1.554,0.492 0.463,0.329 0.88,0.761 1.25,1.297 0.37,0.536 0.69,1.149 0.961,1.836 0.271,0.688 0.493,1.396 0.664,2.125 0.172,0.73 0.302,1.446 0.391,2.149 0.088,0.703 0.133,1.336 0.133,1.898 0,1.261 -0.217,2.167 -0.649,2.719 C 1.341,-0.276 0.75,0 0,0" /></g><g
           transform="translate(190.3452,55.417)"
           id="g84"><path
             id="path86"
             style="fill:#ffffff;fill-opacity:1;fill-rule:nonzero;stroke:none"
             d="M 0,0 C -0.125,0.489 -0.318,0.888 -0.578,1.195 -0.839,1.503 -1.167,1.49 -1.562,1.62 -1.959,1.75 -2.422,1.583 -2.953,1.583 l -1.625,0 -2.047,-9 1.984,0 c 0.677,0 1.31,0.245 1.899,0.443 0.588,0.198 1.098,0.581 1.531,1.003 0.432,0.421 0.774,1.005 1.024,1.677 0.249,0.672 0.374,1.505 0.374,2.463 C 0.187,-1.112 0.125,-0.489 0,0" /></g><g
           transform="translate(384.5566,52.6748)"
           id="g88"><path
             id="path90"
             style="fill:#ffffff;fill-opacity:1;fill-rule:nonzero;stroke:none"
             d="M 0,0 C -0.047,0.411 -0.089,0.81 -0.125,1.195 -0.162,1.581 -0.193,1.956 -0.219,2.32 -0.245,2.685 -0.264,3.06 -0.273,3.445 -0.43,3.06 -0.586,2.703 -0.742,2.375 -0.898,2.047 -1.065,1.714 -1.242,1.375 -1.42,1.036 -1.615,0.677 -1.828,0.297 c -0.214,-0.38 -0.461,-0.81 -0.742,-1.31 l -3.172,-5.662 6.469,0 -0.579,5.365 C 0.096,-0.841 0.047,-0.411 0,0" /></g><g
           transform="translate(69.1187,55.8389)"
           id="g92"><path
             id="path94"
             style="fill:#ffffff;fill-opacity:1;fill-rule:nonzero;stroke:none"
             d="m 0,0 c -0.484,0.531 -1.073,0.724 -1.766,0.979 -0.693,0.255 -1.466,0.182 -2.32,0.182 l -1.344,0 -4,-19 1.438,0 c 1.5,0 2.838,0.552 4.015,1.162 1.177,0.609 2.172,1.587 2.985,2.686 0.812,1.099 1.431,2.471 1.859,3.992 0.427,1.52 0.641,3.223 0.641,5.046 0,1.114 -0.131,2.097 -0.391,2.914 C 0.856,-1.222 0.484,-0.531 0,0" /></g><g
           transform="translate(434.252,53.4014)"
           id="g96"><path
             id="path98"
             style="fill:#ffffff;fill-opacity:1;fill-rule:nonzero;stroke:none"
             d="m 0,0 -2.266,0 c 0.01,0.073 0.024,0.203 0.039,0.391 0.016,0.187 0.032,0.382 0.047,0.586 0.016,0.203 0.032,0.39 0.047,0.562 0.016,0.172 0.024,0.278 0.024,0.32 0,0.292 -0.042,0.568 -0.125,0.829 -0.084,0.26 -0.214,0.489 -0.391,0.687 C -2.803,3.573 -3.034,3.727 -3.32,3.836 -3.607,3.945 -3.959,4 -4.375,4 l -4.25,0 -1.703,-8 7.265,0 -0.421,-1.922 -7.266,0 -1.922,-9.016 5.063,0 c 0.5,0 0.947,0.071 1.343,0.211 0.396,0.141 0.74,0.331 1.032,0.571 0.291,0.239 0.539,0.518 0.742,0.836 0.203,0.317 0.367,0.653 0.492,1.007 l 0.516,1.375 2.281,0 -1.485,-5.953 -18.359,0 0.344,1.703 0.422,0 c 0.333,0 0.658,0.021 0.976,0.063 0.318,0.042 0.607,0.13 0.868,0.266 0.259,0.135 0.486,0.328 0.679,0.578 0.193,0.25 0.33,0.583 0.414,1 l 3.328,15.719 c 0.041,0.114 0.076,0.245 0.102,0.39 0.025,0.146 0.039,0.261 0.039,0.344 0,0.229 -0.058,0.417 -0.172,0.562 -0.115,0.146 -0.273,0.258 -0.476,0.336 -0.204,0.078 -0.449,0.13 -0.735,0.157 -0.287,0.026 -0.596,0.039 -0.929,0.039 l -0.407,0 0.344,1.687 17.375,0 L 0,0 Z m -22.906,4 -2.547,0 -3.688,-17.375 c -0.021,-0.114 -0.046,-0.245 -0.078,-0.391 -0.031,-0.145 -0.047,-0.26 -0.047,-0.343 0,-0.23 0.057,-0.414 0.172,-0.555 0.115,-0.141 0.276,-0.25 0.485,-0.328 0.208,-0.078 0.455,-0.13 0.742,-0.156 0.286,-0.027 0.596,-0.04 0.93,-0.04 l 0.421,0 -0.343,-1.703 -11.016,0 0.359,1.703 0.407,0 c 0.333,0 0.658,0.021 0.976,0.063 0.318,0.042 0.607,0.13 0.867,0.266 0.26,0.135 0.487,0.328 0.68,0.578 0.192,0.25 0.336,0.583 0.43,1 L -30.547,4 -33.109,4 c -0.5,0 -0.925,-0.062 -1.274,-0.187 -0.349,-0.125 -0.651,-0.31 -0.906,-0.555 -0.256,-0.245 -0.472,-0.544 -0.649,-0.899 -0.177,-0.354 -0.343,-0.765 -0.5,-1.234 l -0.453,-1.375 -2.14,0 1.468,6.203 19.907,0 -1.11,-6.203 -2.156,0 c 0.01,0.073 0.028,0.237 0.055,0.492 0.025,0.255 0.055,0.529 0.086,0.82 0.031,0.292 0.059,0.56 0.086,0.805 0.025,0.245 0.039,0.394 0.039,0.446 0,0.562 -0.17,0.984 -0.508,1.265 C -21.503,3.859 -22.084,4 -22.906,4 m -18.063,-20.891 -10.562,0 0.343,1.703 0.735,0 c 0.687,0 1.234,0.107 1.64,0.321 0.407,0.214 0.61,0.554 0.61,1.023 0,0.177 -0.006,0.352 -0.016,0.524 -0.01,0.172 -0.026,0.336 -0.047,0.492 l -0.484,3.453 -7.781,0 -1.563,-2.875 c -0.209,-0.386 -0.362,-0.724 -0.461,-1.016 -0.099,-0.292 -0.148,-0.551 -0.148,-0.781 0,-0.395 0.145,-0.684 0.437,-0.867 0.291,-0.183 0.745,-0.274 1.36,-0.274 l 0.64,0 -0.359,-1.703 -8.313,0 0.344,1.703 0.672,0 c 0.292,0 0.549,0.035 0.774,0.102 0.223,0.067 0.439,0.195 0.648,0.383 0.208,0.187 0.424,0.442 0.648,0.765 0.224,0.324 0.482,0.735 0.774,1.235 l 10.859,18.656 4.375,0 2.688,-18.844 c 0.052,-0.333 0.122,-0.64 0.211,-0.922 0.088,-0.281 0.205,-0.523 0.351,-0.726 0.146,-0.203 0.33,-0.362 0.555,-0.477 0.224,-0.114 0.502,-0.172 0.836,-0.172 l 0.578,0 -0.344,-1.703 z m -30.531,0 -8.672,18.11 -3.016,-14.328 c -0.052,-0.24 -0.091,-0.446 -0.117,-0.618 -0.026,-0.171 -0.039,-0.299 -0.039,-0.382 0,-0.23 0.057,-0.414 0.172,-0.555 0.114,-0.141 0.276,-0.25 0.484,-0.328 0.209,-0.078 0.456,-0.13 0.743,-0.156 0.286,-0.027 0.595,-0.04 0.929,-0.04 l 0.11,0 -0.36,-1.703 -8.062,0 0.344,1.703 0.421,0 c 0.334,0 0.659,0.021 0.977,0.063 0.317,0.042 0.607,0.13 0.867,0.266 0.26,0.135 0.487,0.328 0.68,0.578 0.192,0.25 0.33,0.583 0.414,1 l 3.266,15.359 c 0.134,0.552 0.203,0.917 0.203,1.094 0,0.229 -0.058,0.417 -0.172,0.562 -0.115,0.146 -0.274,0.258 -0.477,0.336 -0.203,0.078 -0.448,0.13 -0.734,0.157 -0.287,0.026 -0.597,0.039 -0.93,0.039 l -0.406,0 0.344,1.687 7.109,0 7.797,-16.406 2.687,12.641 c 0.115,0.489 0.172,0.817 0.172,0.984 0,0.229 -0.06,0.417 -0.179,0.562 -0.12,0.146 -0.284,0.258 -0.493,0.336 -0.208,0.078 -0.456,0.13 -0.742,0.157 -0.287,0.026 -0.596,0.039 -0.929,0.039 l -0.094,0 0.359,1.687 8.063,0 -0.36,-1.687 -0.406,0 c -0.334,0 -0.659,-0.024 -0.976,-0.071 -0.319,-0.047 -0.608,-0.137 -0.868,-0.273 -0.26,-0.136 -0.487,-0.328 -0.679,-0.578 -0.194,-0.25 -0.336,-0.583 -0.43,-1 l -4.063,-19.235 -2.937,0 z m -19.719,0 -18.359,0 0.344,1.703 0.421,0 c 0.334,0 0.659,0.021 0.977,0.063 0.317,0.042 0.607,0.13 0.867,0.266 0.26,0.135 0.487,0.328 0.68,0.578 0.192,0.25 0.33,0.583 0.414,1 l 3.328,15.719 c 0.041,0.114 0.075,0.245 0.102,0.39 0.025,0.146 0.039,0.261 0.039,0.344 0,0.229 -0.058,0.417 -0.172,0.562 -0.115,0.146 -0.274,0.258 -0.477,0.336 -0.203,0.078 -0.448,0.13 -0.734,0.157 -0.287,0.026 -0.597,0.039 -0.93,0.039 l -0.406,0 0.344,1.687 17.375,0 L -88.531,0 -90.797,0 c 0.01,0.073 0.024,0.203 0.039,0.391 0.016,0.187 0.031,0.382 0.047,0.586 0.016,0.203 0.031,0.39 0.047,0.562 0.016,0.172 0.023,0.278 0.023,0.32 0,0.292 -0.042,0.568 -0.125,0.829 -0.084,0.26 -0.213,0.489 -0.39,0.687 -0.178,0.198 -0.409,0.352 -0.696,0.461 C -92.139,3.945 -92.49,4 -92.906,4 l -4.25,0 -1.703,-8 7.265,0 -0.422,-1.922 -7.265,0 -1.922,-9.016 5.062,0 c 0.5,0 0.948,0.071 1.344,0.211 0.396,0.141 0.739,0.331 1.031,0.571 0.291,0.239 0.539,0.518 0.743,0.836 0.203,0.317 0.367,0.653 0.492,1.007 l 0.515,1.375 2.282,0 -1.485,-5.953 z m -19.836,3.782 c -0.412,-0.886 -1,-1.63 -1.765,-2.235 -0.766,-0.604 -1.691,-1.065 -2.774,-1.383 -1.084,-0.317 -2.297,-0.476 -3.64,-0.476 -1.324,0 -2.48,0.12 -3.469,0.359 -0.99,0.24 -1.813,0.568 -2.469,0.985 -0.656,0.417 -1.148,0.909 -1.476,1.476 -0.329,0.568 -0.493,1.185 -0.493,1.852 0,0.5 0.102,0.937 0.305,1.312 0.203,0.375 0.489,0.688 0.859,0.938 0.37,0.25 0.807,0.437 1.313,0.562 0.505,0.125 1.064,0.188 1.68,0.188 0,-0.98 0.103,-1.828 0.312,-2.547 0.208,-0.719 0.5,-1.316 0.875,-1.789 0.375,-0.474 0.822,-0.825 1.344,-1.055 0.52,-0.229 1.094,-0.344 1.719,-0.344 0.603,0 1.14,0.086 1.609,0.258 0.469,0.172 0.867,0.406 1.195,0.703 0.328,0.297 0.578,0.646 0.75,1.047 0.172,0.402 0.258,0.831 0.258,1.289 0,0.448 -0.055,0.86 -0.164,1.235 -0.109,0.375 -0.31,0.739 -0.602,1.093 -0.291,0.355 -0.693,0.714 -1.203,1.078 -0.51,0.365 -1.167,0.766 -1.968,1.204 -0.834,0.458 -1.566,0.929 -2.196,1.414 -0.631,0.484 -1.156,1.008 -1.578,1.57 -0.422,0.562 -0.74,1.18 -0.953,1.852 -0.214,0.671 -0.32,1.429 -0.32,2.273 0,0.958 0.192,1.839 0.578,2.641 0.385,0.801 0.937,1.492 1.656,2.07 0.719,0.578 1.588,1.026 2.609,1.344 1.021,0.317 2.167,0.476 3.438,0.476 1.187,0 2.224,-0.094 3.109,-0.281 0.885,-0.188 1.622,-0.442 2.211,-0.766 0.588,-0.323 1.029,-0.703 1.321,-1.14 0.291,-0.438 0.437,-0.906 0.437,-1.406 0,-0.865 -0.328,-1.544 -0.984,-2.04 -0.657,-0.495 -1.73,-0.742 -3.219,-0.742 0,0.48 -0.047,0.98 -0.141,1.5 -0.093,0.521 -0.26,0.997 -0.5,1.43 -0.24,0.433 -0.562,0.789 -0.968,1.07 -0.407,0.281 -0.922,0.422 -1.547,0.422 -0.428,0 -0.852,-0.067 -1.274,-0.203 -0.422,-0.136 -0.799,-0.339 -1.133,-0.609 -0.333,-0.271 -0.604,-0.613 -0.812,-1.024 -0.209,-0.411 -0.313,-0.898 -0.313,-1.461 0,-0.562 0.088,-1.042 0.266,-1.437 0.177,-0.396 0.443,-0.763 0.797,-1.102 0.354,-0.339 0.797,-0.667 1.328,-0.984 0.531,-0.318 1.156,-0.669 1.875,-1.055 1.614,-0.875 2.807,-1.841 3.578,-2.898 0.771,-1.058 1.156,-2.269 1.156,-3.633 0,-1.136 -0.206,-2.146 -0.617,-3.031 m -25.617,8.718 c -0.646,-0.542 -1.584,-0.812 -2.812,-0.812 0,0.479 -0.024,0.914 -0.071,1.305 -0.047,0.39 -0.131,0.723 -0.25,1 -0.12,0.276 -0.281,0.487 -0.484,0.632 -0.203,0.146 -0.456,0.219 -0.758,0.219 -0.303,0 -0.62,-0.122 -0.953,-0.367 -0.334,-0.245 -0.667,-0.581 -1,-1.008 -0.334,-0.427 -0.659,-0.934 -0.977,-1.523 -0.318,-0.589 -0.623,-1.23 -0.914,-1.922 -0.292,-0.693 -0.557,-1.419 -0.796,-2.18 -0.241,-0.761 -0.444,-1.531 -0.61,-2.312 l -1.219,-5.532 -4.828,0 2.719,12.86 c 0.031,0.177 0.07,0.411 0.117,0.703 0.047,0.292 0.071,0.552 0.071,0.781 0,0.396 -0.131,0.68 -0.391,0.852 -0.261,0.172 -0.693,0.258 -1.297,0.258 l -0.578,0 0.281,1.703 7.078,0 -0.672,-4.391 0.157,0 c 0.364,0.771 0.731,1.448 1.101,2.031 0.369,0.583 0.776,1.073 1.219,1.469 0.442,0.396 0.945,0.695 1.508,0.898 0.562,0.204 1.219,0.305 1.969,0.305 1.134,0 1.978,-0.214 2.531,-0.64 0.552,-0.427 0.828,-1.047 0.828,-1.86 0,-1.104 -0.323,-1.927 -0.969,-2.469 m -18.437,-4.172 c -0.178,-0.843 -0.452,-1.674 -0.821,-2.492 -0.37,-0.817 -0.839,-1.598 -1.406,-2.343 -0.568,-0.746 -1.237,-1.399 -2.008,-1.961 -0.771,-0.563 -1.646,-1.011 -2.625,-1.344 -0.979,-0.333 -2.073,-0.5 -3.281,-0.5 -1,0 -1.917,0.139 -2.75,0.414 -0.834,0.276 -1.547,0.692 -2.141,1.25 -0.593,0.558 -1.057,1.258 -1.39,2.101 -0.334,0.844 -0.5,1.829 -0.5,2.954 0,0.801 0.094,1.63 0.281,2.484 0.188,0.854 0.471,1.692 0.852,2.516 0.379,0.823 0.856,1.601 1.429,2.336 0.573,0.734 1.247,1.377 2.024,1.929 0.775,0.552 1.656,0.99 2.64,1.313 0.985,0.323 2.076,0.484 3.274,0.484 0.916,0 1.781,-0.128 2.594,-0.383 0.812,-0.255 1.52,-0.653 2.125,-1.195 0.603,-0.542 1.083,-1.237 1.437,-2.086 0.354,-0.849 0.531,-1.867 0.531,-3.055 0,-0.77 -0.089,-1.578 -0.265,-2.422 m -17.532,6.641 -4.062,0 -3.031,-14.297 c -0.241,-1.135 -0.55,-2.13 -0.93,-2.984 -0.381,-0.854 -0.808,-1.591 -1.281,-2.211 -0.475,-0.619 -0.988,-1.133 -1.54,-1.539 -0.553,-0.406 -1.12,-0.729 -1.703,-0.969 -0.584,-0.239 -1.177,-0.408 -1.781,-0.508 -0.604,-0.098 -1.193,-0.148 -1.766,-0.148 -0.156,0 -0.328,0.008 -0.515,0.023 -0.188,0.016 -0.37,0.037 -0.547,0.063 -0.177,0.026 -0.344,0.055 -0.5,0.086 -0.157,0.031 -0.286,0.062 -0.391,0.094 l 0.391,1.859 c 0.177,-0.052 0.406,-0.104 0.687,-0.156 0.281,-0.052 0.542,-0.078 0.781,-0.078 0.522,0 0.983,0.088 1.383,0.265 0.402,0.178 0.761,0.477 1.078,0.899 0.318,0.421 0.604,0.987 0.86,1.695 0.255,0.709 0.492,1.594 0.711,2.656 l 3.235,15.25 -2.907,0 0.312,1.516 3.079,0.672 0.25,1.187 c 0.25,1.052 0.583,1.972 1,2.758 0.416,0.786 0.932,1.442 1.547,1.969 0.614,0.526 1.336,0.919 2.164,1.179 0.828,0.261 1.783,0.391 2.867,0.391 0.822,0 1.549,-0.073 2.18,-0.219 0.63,-0.145 1.156,-0.344 1.578,-0.594 0.422,-0.25 0.739,-0.543 0.953,-0.882 0.213,-0.339 0.32,-0.701 0.32,-1.086 0,-0.708 -0.312,-1.261 -0.937,-1.656 -0.625,-0.396 -1.537,-0.594 -2.735,-0.594 0,0.406 -0.023,0.8 -0.07,1.179 -0.047,0.38 -0.128,0.716 -0.242,1.008 -0.115,0.292 -0.266,0.524 -0.453,0.696 -0.188,0.171 -0.428,0.257 -0.719,0.257 -0.678,0 -1.195,-0.292 -1.555,-0.875 -0.359,-0.583 -0.648,-1.473 -0.867,-2.671 l -0.422,-2.047 4.032,0 -0.454,-2.188 z M -193,-0.25 l -2.157,0 c 0.01,0.073 0.029,0.237 0.055,0.492 0.025,0.255 0.055,0.529 0.086,0.82 0.031,0.292 0.059,0.56 0.086,0.805 0.025,0.245 0.039,0.394 0.039,0.446 0,0.562 -0.17,0.984 -0.508,1.265 -0.339,0.281 -0.92,0.422 -1.742,0.422 l -2.547,0 -3.687,-17.375 c -0.022,-0.114 -0.047,-0.245 -0.079,-0.391 -0.031,-0.145 -0.046,-0.26 -0.046,-0.343 0,-0.23 0.056,-0.414 0.171,-0.555 0.115,-0.141 0.276,-0.25 0.485,-0.328 0.208,-0.078 0.455,-0.13 0.742,-0.156 0.286,-0.027 0.596,-0.04 0.93,-0.04 l 0.422,0 -0.344,-1.703 -11.016,0 0.36,1.703 0.406,0 c 0.333,0 0.658,0.021 0.976,0.063 0.318,0.042 0.607,0.13 0.868,0.266 0.259,0.135 0.486,0.328 0.679,0.578 0.193,0.25 0.336,0.583 0.43,1 l 3.609,17.281 -2.562,0 c -0.5,0 -0.925,-0.062 -1.274,-0.187 -0.349,-0.125 -0.651,-0.31 -0.906,-0.555 -0.256,-0.245 -0.472,-0.544 -0.648,-0.899 -0.178,-0.354 -0.344,-0.765 -0.5,-1.234 l -0.453,-1.375 -2.141,0 1.469,6.203 19.906,0 L -193,-0.25 Z m -22.204,-16.641 -10.562,0 0.344,1.703 0.734,0 c 0.688,0 1.234,0.107 1.641,0.321 0.406,0.214 0.609,0.554 0.609,1.023 0,0.177 -0.006,0.352 -0.016,0.524 -0.01,0.172 -0.026,0.336 -0.046,0.492 l -0.485,3.453 -7.781,0 -1.563,-2.875 c -0.209,-0.386 -0.362,-0.724 -0.461,-1.016 -0.099,-0.292 -0.148,-0.551 -0.148,-0.781 0,-0.395 0.146,-0.684 0.438,-0.867 0.291,-0.183 0.744,-0.274 1.359,-0.274 l 0.641,0 -0.36,-1.703 -8.094,0 -0.218,0 -0.11,0 c -1.115,0 -2.081,0.047 -2.898,0.141 -0.819,0.094 -1.519,0.273 -2.102,0.539 -0.584,0.266 -1.068,0.636 -1.453,1.109 -0.386,0.474 -0.698,1.091 -0.937,1.852 l -2.016,6.281 -2.203,0 -1.25,-5.859 c -0.084,-0.386 -0.141,-0.675 -0.172,-0.867 -0.031,-0.193 -0.047,-0.331 -0.047,-0.414 0,-0.23 0.057,-0.414 0.172,-0.555 0.114,-0.141 0.275,-0.25 0.484,-0.328 0.208,-0.078 0.455,-0.13 0.743,-0.156 0.286,-0.027 0.595,-0.04 0.929,-0.04 l 1.063,0 -0.36,-1.703 -11.64,0 0.344,1.703 0.421,0 c 0.333,0 0.659,0.021 0.977,0.063 0.317,0.042 0.606,0.13 0.867,0.266 0.26,0.135 0.486,0.328 0.68,0.578 0.192,0.25 0.33,0.583 0.414,1 L -254,2.078 c 0.134,0.552 0.203,0.917 0.203,1.094 0,0.229 -0.058,0.417 -0.172,0.562 -0.115,0.146 -0.274,0.258 -0.477,0.336 -0.203,0.078 -0.448,0.13 -0.734,0.157 -0.287,0.026 -0.597,0.039 -0.93,0.039 l -0.406,0 0.344,1.687 10.281,0 c 2.552,0 4.458,-0.442 5.719,-1.328 1.259,-0.886 1.89,-2.224 1.89,-4.016 0,-1.083 -0.175,-2.005 -0.523,-2.765 -0.35,-0.761 -0.797,-1.399 -1.344,-1.914 -0.547,-0.516 -1.159,-0.925 -1.836,-1.227 -0.678,-0.302 -1.344,-0.531 -2,-0.687 l 2.219,-5.954 c 0.219,-0.604 0.432,-1.114 0.641,-1.531 0.208,-0.417 0.429,-0.753 0.664,-1.008 0.234,-0.254 0.489,-0.437 0.765,-0.546 0.276,-0.11 0.596,-0.165 0.961,-0.165 l 0.125,0 0.453,0 c 0.292,0 0.549,0.035 0.774,0.102 0.223,0.067 0.439,0.195 0.648,0.383 0.208,0.187 0.424,0.442 0.649,0.765 0.223,0.324 0.481,0.735 0.773,1.235 l 10.859,18.656 4.375,0 2.688,-18.844 c 0.052,-0.333 0.122,-0.64 0.211,-0.922 0.088,-0.281 0.205,-0.523 0.351,-0.726 0.146,-0.203 0.33,-0.362 0.555,-0.477 0.224,-0.114 0.502,-0.172 0.836,-0.172 l 0.578,0 -0.344,-1.703 z m -57.687,3.868 c 0.927,-0.996 2.307,-1.493 4.141,-1.493 0.739,0 1.406,0.083 2,0.25 0.593,0.167 1.125,0.388 1.593,0.664 0.469,0.277 0.88,0.586 1.235,0.93 0.353,0.344 0.666,0.698 0.937,1.063 0.125,-0.094 0.247,-0.24 0.367,-0.438 0.119,-0.198 0.18,-0.417 0.18,-0.656 0,-0.531 -0.162,-1.066 -0.484,-1.602 -0.324,-0.536 -0.8,-1.02 -1.43,-1.453 -0.631,-0.432 -1.409,-0.781 -2.336,-1.047 -0.928,-0.265 -1.995,-0.398 -3.203,-0.398 -1.531,0 -2.899,0.19 -4.102,0.57 -1.203,0.38 -2.218,0.938 -3.047,1.672 -0.828,0.734 -1.46,1.636 -1.898,2.703 -0.437,1.068 -0.656,2.284 -0.656,3.649 0,1.281 0.15,2.542 0.453,3.781 0.302,1.239 0.739,2.417 1.312,3.531 0.573,1.114 1.274,2.141 2.102,3.078 0.828,0.938 1.766,1.75 2.812,2.438 1.047,0.687 2.196,1.223 3.446,1.609 1.25,0.386 2.588,0.578 4.015,0.578 1.063,0 1.993,-0.091 2.789,-0.273 0.797,-0.183 1.458,-0.438 1.985,-0.766 0.525,-0.328 0.919,-0.729 1.18,-1.203 0.259,-0.474 0.39,-0.997 0.39,-1.57 0,-0.469 -0.115,-0.88 -0.344,-1.235 -0.229,-0.354 -0.545,-0.653 -0.945,-0.898 -0.401,-0.245 -0.878,-0.43 -1.43,-0.555 -0.552,-0.125 -1.151,-0.187 -1.796,-0.187 0,0.448 -0.032,0.942 -0.094,1.484 -0.063,0.542 -0.191,1.047 -0.383,1.516 -0.193,0.469 -0.467,0.859 -0.82,1.172 -0.355,0.312 -0.828,0.468 -1.422,0.468 -0.844,0 -1.623,-0.192 -2.336,-0.578 -0.714,-0.385 -1.365,-0.909 -1.953,-1.57 -0.589,-0.661 -1.11,-1.43 -1.563,-2.305 -0.453,-0.875 -0.834,-1.8 -1.14,-2.773 -0.308,-0.974 -0.542,-1.969 -0.704,-2.985 -0.162,-1.015 -0.242,-1.997 -0.242,-2.945 0,-1.823 0.463,-3.231 1.391,-4.226 m -9.945,7.398 c -0.246,-1.114 -0.616,-2.219 -1.11,-3.313 -0.495,-1.093 -1.115,-2.14 -1.859,-3.14 -0.745,-1 -1.62,-1.883 -2.625,-2.649 -1.006,-0.765 -2.141,-1.377 -3.406,-1.835 -1.266,-0.459 -2.66,-0.688 -4.18,-0.688 -1.261,0 -2.436,0.19 -3.524,0.57 -1.088,0.38 -2.031,0.946 -2.828,1.696 -0.797,0.75 -1.424,1.676 -1.882,2.781 -0.459,1.104 -0.688,2.38 -0.688,3.828 0,1.021 0.127,2.094 0.383,3.219 0.255,1.125 0.638,2.231 1.148,3.32 0.51,1.089 1.146,2.125 1.907,3.109 0.759,0.985 1.642,1.849 2.648,2.594 1.005,0.745 2.138,1.339 3.398,1.781 1.26,0.443 2.641,0.664 4.141,0.664 1.177,0 2.299,-0.171 3.367,-0.515 1.068,-0.344 2.008,-0.875 2.821,-1.594 0.812,-0.719 1.458,-1.63 1.937,-2.734 0.479,-1.105 0.719,-2.422 0.719,-3.953 0,-0.98 -0.123,-2.027 -0.367,-3.141 m -22.586,9.891 c -0.344,0 -0.678,-0.024 -1,-0.071 -0.324,-0.047 -0.62,-0.137 -0.891,-0.273 -0.271,-0.136 -0.503,-0.333 -0.695,-0.594 -0.194,-0.261 -0.336,-0.599 -0.43,-1.015 l -3.281,-15.688 c -0.042,-0.114 -0.076,-0.245 -0.102,-0.391 -0.026,-0.145 -0.039,-0.26 -0.039,-0.343 0,-0.23 0.057,-0.414 0.172,-0.555 0.114,-0.141 0.273,-0.25 0.477,-0.328 0.203,-0.078 0.447,-0.13 0.734,-0.156 0.286,-0.027 0.596,-0.04 0.93,-0.04 l 0.406,0 -0.344,-1.703 -10.906,0 0.344,1.703 0.422,0 c 0.343,0 0.676,0.021 1,0.063 0.322,0.042 0.617,0.133 0.882,0.273 0.266,0.141 0.497,0.336 0.696,0.586 0.197,0.25 0.338,0.589 0.422,1.016 l 3.39,16.047 -10.594,-19.688 -2.203,0 -2.593,19.688 -3.391,-15.906 c -0.053,-0.24 -0.092,-0.446 -0.117,-0.618 -0.027,-0.171 -0.039,-0.299 -0.039,-0.382 0,-0.23 0.056,-0.414 0.172,-0.555 0.114,-0.141 0.275,-0.25 0.484,-0.328 0.208,-0.078 0.455,-0.13 0.742,-0.156 0.286,-0.027 0.596,-0.04 0.93,-0.04 l 0.109,0 -0.359,-1.703 -8.063,0 0.344,1.703 0.422,0 c 0.333,0 0.658,0.021 0.976,0.063 0.318,0.042 0.607,0.13 0.868,0.266 0.259,0.135 0.486,0.328 0.679,0.578 0.193,0.25 0.33,0.583 0.414,1 l 3.266,15.359 c 0.135,0.552 0.203,0.917 0.203,1.094 0,0.229 -0.057,0.417 -0.172,0.562 -0.115,0.146 -0.273,0.258 -0.476,0.336 -0.203,0.078 -0.449,0.13 -0.735,0.157 -0.287,0.026 -0.596,0.039 -0.929,0.039 l -0.407,0 0.344,1.687 8.922,0 2.156,-15.547 8.375,15.547 9.25,0 -0.343,-1.687 -0.422,0 z m -34.625,-21.157 -18.36,0 0.344,1.703 0.422,0 c 0.333,0 0.658,0.021 0.976,0.063 0.318,0.042 0.607,0.13 0.868,0.266 0.259,0.135 0.486,0.328 0.679,0.578 0.193,0.25 0.33,0.583 0.414,1 l 3.329,15.719 c 0.041,0.114 0.075,0.245 0.101,0.39 0.025,0.146 0.039,0.261 0.039,0.344 0,0.229 -0.057,0.417 -0.172,0.562 -0.115,0.146 -0.273,0.258 -0.476,0.336 -0.203,0.078 -0.449,0.13 -0.735,0.157 -0.287,0.026 -0.596,0.039 -0.929,0.039 l -0.407,0 0.344,1.687 17.375,0 -1.125,-5.953 -2.265,0 c 0.009,0.073 0.023,0.203 0.039,0.391 0.015,0.187 0.031,0.382 0.046,0.586 0.016,0.203 0.032,0.39 0.047,0.562 0.016,0.172 0.024,0.278 0.024,0.32 0,0.292 -0.042,0.568 -0.125,0.829 -0.084,0.26 -0.214,0.489 -0.391,0.687 -0.178,0.198 -0.409,0.352 -0.695,0.461 -0.287,0.109 -0.639,0.164 -1.055,0.164 l -4.25,0 -1.703,-8 7.266,0 -0.422,-1.922 -7.266,0 -1.922,-9.016 5.063,0 c 0.5,0 0.947,0.071 1.344,0.211 0.395,0.141 0.739,0.331 1.031,0.571 0.291,0.239 0.539,0.518 0.742,0.836 0.203,0.317 0.367,0.653 0.492,1.007 l 0.516,1.375 2.281,0 -1.484,-5.953 z m -19.774,7.086 c -0.515,-1.047 -1.154,-2.005 -1.914,-2.875 -0.761,-0.87 -1.64,-1.617 -2.64,-2.242 -1,-0.625 -2.118,-1.109 -3.352,-1.453 -1.234,-0.344 -2.576,-0.516 -4.023,-0.516 l -11.266,0 0.344,1.703 0.453,0 c 0.333,0 0.658,0.021 0.976,0.063 0.318,0.042 0.607,0.13 0.868,0.266 0.259,0.135 0.486,0.328 0.679,0.578 0.193,0.25 0.33,0.583 0.414,1 l 3.328,15.719 c 0.041,0.114 0.076,0.245 0.102,0.39 0.025,0.146 0.039,0.261 0.039,0.344 0,0.229 -0.058,0.417 -0.172,0.562 -0.115,0.146 -0.273,0.258 -0.476,0.336 -0.204,0.078 -0.449,0.13 -0.735,0.157 -0.287,0.026 -0.596,0.039 -0.929,0.039 l -0.407,0 0.344,1.687 10.234,0 c 1.532,0 2.899,-0.187 4.102,-0.562 1.203,-0.375 2.219,-0.93 3.047,-1.664 0.828,-0.735 1.461,-1.644 1.898,-2.727 0.438,-1.083 0.657,-2.333 0.657,-3.75 0,-1.271 -0.133,-2.503 -0.399,-3.695 -0.266,-1.193 -0.656,-2.313 -1.172,-3.36 m 398.87,3.826 c -0.274,0.297 -0.274,0.718 0,1.014 l 20.106,21.78 c 1.226,1.328 0.135,3.294 -1.827,3.294 l -477.6,0 c -3.25,0 -5.884,-2.283 -5.884,-5.099 l 0,-40.96 c 0,-2.818 2.636,-5.103 5.888,-5.103 l 477.263,0 c 2.096,0 3.262,2.101 1.952,3.52 L 39.049,-5.979 Z" /></g></g></g></g></svg>