<?xml version="1.0" encoding="UTF-8" standalone="no"?>
<svg
   xmlns:dc="http://purl.org/dc/elements/1.1/"
   xmlns:cc="http://creativecommons.org/ns#"
   xmlns:rdf="http://www.w3.org/1999/02/22-rdf-syntax-ns#"
   xmlns:svg="http://www.w3.org/2000/svg"
   xmlns="http://www.w3.org/2000/svg"
   viewBox="0 0 625 375"
   height="375"
   width="625"
   xml:space="preserve"
   version="1.1"
   id="svg2"><metadata
     id="metadata8"><rdf:RDF><cc:Work
         rdf:about=""><dc:format>image/svg+xml</dc:format><dc:type
           rdf:resource="http://purl.org/dc/dcmitype/StillImage" /></cc:Work></rdf:RDF></metadata><defs
     id="defs6"><clipPath
       id="clipPath32"
       clipPathUnits="userSpaceOnUse"><path
         id="path34"
         d="M 0,300 500,300 500,0 0,0 0,300 Z" /></clipPath></defs><g
     transform="matrix(1.25,0,0,-1.25,0,375)"
     id="g10"><g
       transform="translate(68.7029,99.627)"
       id="g12"><path
         id="path14"
         style="fill:#ffffff;fill-opacity:1;fill-rule:nonzero;stroke:none"
         d="m 0,0 0,48.838 -33.494,0 0,-48.838 -27.389,0 0,114.34 27.389,0 0,-44.218 33.494,0 0,44.218 27.389,0 L 27.389,0 0,0 Z" /></g><g
       transform="translate(143.6131,144.0103)"
       id="g16"><path
         id="path18"
         style="fill:#ffffff;fill-opacity:1;fill-rule:nonzero;stroke:none"
         d="m 0,0 24.419,0 -11.715,48.343 -0.825,0 L 0,0 Z m 28.873,-19.799 -33.163,0 -5.94,-24.584 -28.874,0 35.144,114.34 33.163,0 34.979,-114.34 -29.369,0 -5.94,24.584 z" /></g><g
       transform="translate(216.2127,99.627)"
       id="g20"><path
         id="path22"
         style="fill:#ffffff;fill-opacity:1;fill-rule:nonzero;stroke:none"
         d="m 0,0 0,114.34 27.389,0 0,-92.726 44.713,0 L 69.132,0 0,0 Z" /></g><g
       transform="translate(296.5662,99.627)"
       id="g24"><path
         id="path26"
         style="fill:#ffffff;fill-opacity:1;fill-rule:nonzero;stroke:none"
         d="m 0,0 0,114.34 27.389,0 0,-92.726 44.713,0 L 69.132,0 0,0 Z" /></g><g
       id="g28"><g
         clip-path="url(#clipPath32)"
         id="g30"><g
           transform="translate(23.8572,223.8858)"
           id="g36"><path
             id="path38"
             style="fill:#ffffff;fill-opacity:1;fill-rule:nonzero;stroke:none"
             d="m 0,0 c -7.841,0 -13.791,2.73 -17.781,6.651 l 4.969,5.46 c 3.431,-3.15 7.492,-4.97 12.462,-4.97 5.181,0 8.961,2.52 8.961,7.211 0,3.99 -2.1,5.88 -9.451,8.19 -10.361,3.151 -14.632,7.211 -14.632,14.562 0,8.191 7.141,13.372 16.592,13.372 7.071,0 11.831,-2.101 15.962,-5.951 l -4.69,-5.321 c -3.29,2.941 -6.721,4.201 -10.642,4.201 -4.48,0 -7.63,-1.961 -7.63,-5.741 0,-3.5 1.75,-5.04 9.801,-7.56 C 12.392,27.373 18.272,23.943 18.272,14.912 18.272,6.161 11.411,0 0,0" /></g><g
           transform="translate(68.5174,234.9473)"
           id="g40"><path
             id="path42"
             style="fill:#ffffff;fill-opacity:1;fill-rule:nonzero;stroke:none"
             d="m 0,0 0,7.42 -3.15,0 c -6.931,0 -9.382,-2.31 -9.382,-6.37 0,-3.64 1.68,-5.601 5.39,-5.601 2.941,0 5.391,1.68 7.142,4.551 m 8.681,-0.42 c 0,-2.801 0.769,-3.851 2.59,-4.551 l -1.96,-5.95 c -3.921,0.35 -6.582,1.75 -7.981,4.97 -2.661,-3.5 -6.791,-5.111 -11.271,-5.111 -7.561,0 -12.182,4.691 -12.182,11.622 0,7.841 6.231,12.251 17.572,12.251 l 4.551,0 0,2.1 c 0,4.691 -2.171,6.301 -7.352,6.301 -2.379,0 -5.879,-0.56 -9.661,-1.89 l -2.17,6.16 c 4.691,1.75 9.381,2.591 13.162,2.591 10.431,0 14.702,-4.481 14.702,-12.601 l 0,-15.892 z" /></g><g
           transform="translate(88.0447,224.9361)"
           id="g44"><path
             id="path46"
             style="fill:#ffffff;fill-opacity:1;fill-rule:nonzero;stroke:none"
             d="m 0,0 0,37.034 7.771,0 0.63,-4.62 c 3.151,3.78 6.861,5.67 10.851,5.67 4.761,0 7.631,-2.03 8.961,-5.67 3.15,3.64 7.141,5.67 11.061,5.67 6.791,0 9.801,-4.061 9.801,-10.991 l 0,-27.093 -8.961,0 0,25.903 c 0,3.92 -1.12,5.46 -3.99,5.46 -2.66,0 -5.25,-2.24 -7.07,-5.11 l 0,-26.253 -8.961,0 0,26.042 c 0,3.851 -1.191,5.321 -3.991,5.321 -2.661,0 -5.321,-2.24 -7.141,-5.11 L 8.961,0 0,0 Z" /></g><g
           transform="translate(166.657,234.9473)"
           id="g48"><path
             id="path50"
             style="fill:#ffffff;fill-opacity:1;fill-rule:nonzero;stroke:none"
             d="m 0,0 0,7.42 -3.15,0 c -6.931,0 -9.381,-2.31 -9.381,-6.37 0,-3.64 1.679,-5.601 5.389,-5.601 2.941,0 5.391,1.68 7.142,4.551 m 8.681,-0.42 c 0,-2.801 0.769,-3.851 2.59,-4.551 l -1.96,-5.95 c -3.92,0.35 -6.582,1.75 -7.981,4.97 -2.66,-3.5 -6.791,-5.111 -11.271,-5.111 -7.561,0 -12.182,4.691 -12.182,11.622 0,7.841 6.23,12.251 17.572,12.251 l 4.551,0 0,2.1 c 0,4.691 -2.171,6.301 -7.352,6.301 -2.379,0 -5.879,-0.56 -9.66,-1.89 l -2.171,6.16 c 4.691,1.75 9.381,2.591 13.162,2.591 10.431,0 14.702,-4.481 14.702,-12.601 l 0,-15.892 z" /></g><g
           transform="translate(207.3269,251.1187)"
           id="g52"><path
             id="path54"
             style="fill:#ffffff;fill-opacity:1;fill-rule:nonzero;stroke:none"
             d="m 0,0 c 0,3.71 -1.4,5.181 -4.551,5.181 -3.08,0 -5.6,-2.381 -7.631,-5.181 l 0,-26.183 -8.961,0 0,37.034 7.772,0 0.63,-4.62 c 3.15,3.71 7.28,5.67 11.621,5.67 6.86,0 10.081,-4.06 10.081,-10.991 l 0,-27.093 -8.961,0 L 0,0 Z" /></g><g
           transform="translate(248.2068,226.6861)"
           id="g56"><path
             id="path58"
             style="fill:#ffffff;fill-opacity:1;fill-rule:nonzero;stroke:none"
             d="m 0,0 c -2.521,-1.89 -6.091,-2.8 -9.241,-2.8 -8.261,0.07 -11.201,4.76 -11.201,12.321 l 0,19.392 -5.671,0 0,6.371 5.671,0 0,8.191 8.961,1.05 0,-9.241 9.031,0 -0.981,-6.371 -8.05,0 0,-19.392 c 0,-3.64 1.19,-5.11 3.919,-5.11 1.471,0 2.801,0.42 4.412,1.4 L 0,0 Z" /></g><g
           transform="translate(253.3836,224.9361)"
           id="g60"><path
             id="path62"
             style="fill:#ffffff;fill-opacity:1;fill-rule:nonzero;stroke:none"
             d="m 0,0 0,51.805 8.961,0.91 0,-19.882 c 3.011,3.361 6.791,5.251 11.061,5.251 6.861,0 10.082,-4.061 10.082,-10.991 l 0,-27.093 -8.961,0 0,26.183 c 0,3.71 -1.401,5.18 -4.551,5.18 -3.08,0 -5.601,-2.38 -7.631,-5.18 L 8.961,0 0,0 Z" /></g><g
           transform="translate(312.9558,234.9473)"
           id="g64"><path
             id="path66"
             style="fill:#ffffff;fill-opacity:1;fill-rule:nonzero;stroke:none"
             d="m 0,0 0,7.42 -3.15,0 c -6.931,0 -9.381,-2.31 -9.381,-6.37 0,-3.64 1.679,-5.601 5.389,-5.601 2.941,0 5.391,1.68 7.142,4.551 m 8.681,-0.42 c 0,-2.801 0.769,-3.851 2.59,-4.551 l -1.96,-5.95 c -3.92,0.35 -6.582,1.75 -7.981,4.97 -2.66,-3.5 -6.791,-5.111 -11.271,-5.111 -7.561,0 -12.182,4.691 -12.182,11.622 0,7.841 6.23,12.251 17.572,12.251 l 4.551,0 0,2.1 c 0,4.691 -2.171,6.301 -7.352,6.301 -2.379,0 -5.879,-0.56 -9.66,-1.89 l -2.171,6.16 c 4.691,1.75 9.381,2.591 13.162,2.591 10.431,0 14.702,-4.481 14.702,-12.601 l 0,-15.892 z" /></g><g
           transform="translate(375.0952,169.9475)"
           id="g68"><path
             id="path70"
             style="fill:#ff8540;fill-opacity:1;fill-rule:nonzero;stroke:none"
             d="m 0,0 44.678,0.032 14.723,43.648 13.643,-43.781 45,0.011 L 83.166,-28.43 95.805,-69.885 58.95,-44.971 22.418,-70.083 34.859,-28.066 0,0 Z" /></g><g
           transform="translate(491.2474,22.3486)"
           id="g72"><path
             id="path74"
             style="fill:#0275ae;fill-opacity:1;fill-rule:nonzero;stroke:none"
             d="m 0,0 -477.264,0 c -3.252,0 -5.888,2.285 -5.888,5.103 l 0,40.96 c 0,2.816 2.635,5.099 5.885,5.099 l 477.599,0 c 1.962,0 3.053,-1.967 1.827,-3.294 l -20.106,-21.78 c -0.273,-0.296 -0.273,-0.718 0,-1.014 L 1.952,3.519 C 3.261,2.101 2.096,0 0,0" /></g><g
           transform="translate(61.1265,38.4951)"
           id="g76"><path
             id="path78"
             style="fill:#ffffff;fill-opacity:1;fill-rule:nonzero;stroke:none"
             d="M 0,0 C 1.5,0 2.838,0.305 4.016,0.914 5.192,1.523 6.187,2.378 7,3.477 7.812,4.575 8.432,5.886 8.859,7.406 9.286,8.927 9.5,10.599 9.5,12.422 c 0,1.114 -0.131,2.081 -0.391,2.898 -0.26,0.818 -0.632,1.492 -1.117,2.024 -0.484,0.531 -1.073,0.925 -1.765,1.179 -0.694,0.255 -1.467,0.383 -2.321,0.383 l -1.343,0 L -1.437,0 0,0 Z m -9.547,-0.281 0.453,0 c 0.333,0 0.658,0.02 0.977,0.062 0.317,0.042 0.606,0.13 0.867,0.266 0.26,0.136 0.486,0.328 0.68,0.578 0.192,0.25 0.33,0.583 0.414,1 l 3.328,15.719 c 0.041,0.114 0.075,0.245 0.101,0.39 0.026,0.146 0.039,0.261 0.039,0.344 0,0.23 -0.057,0.417 -0.171,0.563 -0.116,0.145 -0.274,0.257 -0.477,0.336 -0.203,0.078 -0.448,0.129 -0.734,0.156 -0.287,0.026 -0.597,0.039 -0.93,0.039 l -0.406,0 0.344,1.687 10.234,0 c 1.531,0 2.898,-0.187 4.101,-0.562 1.204,-0.375 2.219,-0.93 3.047,-1.664 0.828,-0.735 1.461,-1.644 1.899,-2.727 0.437,-1.083 0.656,-2.333 0.656,-3.75 0,-1.27 -0.133,-2.503 -0.398,-3.695 C 14.211,7.269 13.82,6.148 13.305,5.102 12.789,4.055 12.15,3.097 11.391,2.227 10.63,1.356 9.75,0.609 8.75,-0.016 7.75,-0.641 6.633,-1.125 5.398,-1.469 4.164,-1.812 2.822,-1.984 1.375,-1.984 l -11.266,0 0.344,1.703 z" /></g><g
           transform="translate(76.189,38.2139)"
           id="g80"><path
             id="path82"
             style="fill:#ffffff;fill-opacity:1;fill-rule:nonzero;stroke:none"
             d="m 0,0 0.422,0 c 0.333,0 0.658,0.021 0.976,0.062 0.318,0.042 0.607,0.13 0.868,0.266 0.259,0.136 0.486,0.328 0.679,0.578 0.193,0.25 0.33,0.583 0.414,1 l 3.328,15.719 c 0.042,0.114 0.076,0.245 0.102,0.391 0.025,0.145 0.039,0.26 0.039,0.343 0,0.23 -0.057,0.417 -0.172,0.563 -0.115,0.145 -0.273,0.258 -0.476,0.336 -0.203,0.078 -0.449,0.13 -0.735,0.156 -0.287,0.026 -0.596,0.039 -0.929,0.039 l -0.407,0 0.344,1.688 17.375,0 -1.125,-5.953 -2.266,0 c 0.01,0.073 0.024,0.203 0.04,0.39 0.015,0.188 0.031,0.383 0.046,0.586 0.016,0.203 0.032,0.391 0.047,0.563 0.016,0.171 0.024,0.278 0.024,0.32 0,0.292 -0.042,0.567 -0.125,0.828 -0.084,0.261 -0.214,0.489 -0.391,0.687 -0.178,0.199 -0.409,0.352 -0.695,0.461 -0.287,0.11 -0.639,0.164 -1.055,0.164 l -4.25,0 -1.703,-7.999 7.266,0 -0.422,-1.922 -7.266,0 -1.922,-9.016 5.063,0 c 0.5,0 0.947,0.07 1.344,0.211 0.395,0.141 0.739,0.331 1.031,0.57 0.291,0.24 0.539,0.519 0.742,0.836 0.203,0.318 0.367,0.654 0.492,1.008 l 0.516,1.375 2.281,0 -1.484,-5.953 -18.36,0 L 0,0 Z" /></g><g
           transform="translate(129.5952,59.3545)"
           id="g84"><path
             id="path86"
             style="fill:#ffffff;fill-opacity:1;fill-rule:nonzero;stroke:none"
             d="m 0,0 -0.344,-1.687 -0.422,0 c -0.343,0 -0.677,-0.024 -1,-0.071 -0.323,-0.047 -0.62,-0.138 -0.89,-0.273 -0.272,-0.136 -0.503,-0.333 -0.696,-0.594 -0.193,-0.261 -0.336,-0.599 -0.429,-1.016 l -3.281,-15.687 c -0.042,-0.114 -0.077,-0.245 -0.102,-0.391 -0.026,-0.145 -0.039,-0.26 -0.039,-0.343 0,-0.23 0.057,-0.415 0.172,-0.555 0.114,-0.141 0.273,-0.25 0.476,-0.328 0.203,-0.078 0.448,-0.13 0.735,-0.157 0.286,-0.026 0.595,-0.039 0.929,-0.039 l 0.407,0 -0.344,-1.703 -10.906,0 0.343,1.703 0.422,0 c 0.344,0 0.677,0.021 1,0.063 0.323,0.042 0.617,0.133 0.883,0.273 0.266,0.141 0.497,0.336 0.695,0.586 0.198,0.25 0.338,0.589 0.422,1.016 l 3.391,16.047 -10.594,-19.688 -2.203,0 -2.594,19.688 -3.39,-15.906 c -0.053,-0.24 -0.092,-0.446 -0.118,-0.618 -0.026,-0.172 -0.039,-0.299 -0.039,-0.382 0,-0.23 0.057,-0.415 0.172,-0.555 0.115,-0.141 0.276,-0.25 0.485,-0.328 0.208,-0.078 0.455,-0.13 0.742,-0.157 0.286,-0.026 0.596,-0.039 0.93,-0.039 l 0.109,0 -0.359,-1.703 -8.063,0 0.344,1.703 0.422,0 c 0.333,0 0.658,0.021 0.976,0.063 0.318,0.042 0.607,0.13 0.867,0.266 0.26,0.135 0.487,0.328 0.68,0.578 0.192,0.25 0.33,0.583 0.414,1 l 3.266,15.359 c 0.135,0.552 0.203,0.917 0.203,1.094 0,0.229 -0.058,0.417 -0.172,0.562 -0.115,0.146 -0.273,0.258 -0.477,0.336 -0.203,0.078 -0.448,0.13 -0.734,0.156 -0.287,0.027 -0.597,0.04 -0.93,0.04 l -0.406,0 0.344,1.687 8.922,0 2.156,-15.547 L -9.25,0 0,0 Z" /></g><g
           transform="translate(134.5327,44.2607)"
           id="g88"><path
             id="path90"
             style="fill:#ffffff;fill-opacity:1;fill-rule:nonzero;stroke:none"
             d="m 0,0 c 0,-1.052 0.111,-1.956 0.336,-2.711 0.224,-0.755 0.531,-1.375 0.922,-1.859 0.39,-0.485 0.851,-0.841 1.383,-1.071 0.531,-0.229 1.098,-0.343 1.703,-0.343 0.885,0 1.689,0.213 2.414,0.64 0.723,0.427 1.372,0.997 1.945,1.711 0.572,0.714 1.07,1.531 1.492,2.453 0.422,0.922 0.771,1.878 1.047,2.867 0.276,0.99 0.482,1.977 0.617,2.961 0.135,0.985 0.204,1.899 0.204,2.743 0,1.042 -0.11,1.937 -0.329,2.687 -0.218,0.75 -0.518,1.37 -0.898,1.86 -0.381,0.489 -0.836,0.851 -1.367,1.085 -0.531,0.235 -1.11,0.352 -1.735,0.352 -0.885,0 -1.69,-0.214 -2.414,-0.641 C 4.596,12.308 3.947,11.737 3.375,11.023 2.802,10.31 2.302,9.492 1.875,8.57 1.447,7.648 1.096,6.69 0.82,5.695 0.544,4.7 0.338,3.711 0.203,2.727 0.067,1.742 0,0.833 0,0 m -5.219,0.766 c 0,1.02 0.127,2.093 0.383,3.218 0.255,1.125 0.638,2.232 1.148,3.321 0.51,1.089 1.146,2.125 1.907,3.109 0.76,0.984 1.642,1.849 2.648,2.594 1.005,0.745 2.138,1.339 3.399,1.781 1.259,0.442 2.64,0.664 4.14,0.664 1.177,0 2.299,-0.172 3.367,-0.515 1.068,-0.344 2.008,-0.875 2.821,-1.594 0.812,-0.719 1.458,-1.63 1.937,-2.735 0.479,-1.104 0.719,-2.421 0.719,-3.953 0,-0.979 -0.123,-2.026 -0.367,-3.14 -0.245,-1.115 -0.615,-2.219 -1.11,-3.313 -0.495,-1.094 -1.115,-2.14 -1.859,-3.141 -0.745,-1 -1.62,-1.882 -2.625,-2.648 C 10.283,-6.352 9.148,-6.964 7.883,-7.422 6.617,-7.88 5.224,-8.109 3.703,-8.109 c -1.261,0 -2.435,0.19 -3.523,0.57 -1.089,0.38 -2.032,0.945 -2.828,1.695 -0.797,0.75 -1.425,1.677 -1.883,2.781 -0.459,1.105 -0.688,2.38 -0.688,3.829" /></g><g
           transform="translate(165.5015,38.8857)"
           id="g92"><path
             id="path94"
             style="fill:#ffffff;fill-opacity:1;fill-rule:nonzero;stroke:none"
             d="M 0,0 C 0.739,0 1.406,0.083 2,0.25 2.594,0.417 3.125,0.638 3.594,0.914 4.062,1.19 4.474,1.5 4.828,1.844 5.182,2.188 5.494,2.542 5.766,2.906 5.891,2.813 6.013,2.667 6.133,2.469 6.252,2.271 6.312,2.052 6.312,1.812 6.312,1.281 6.15,0.747 5.828,0.211 5.505,-0.325 5.028,-0.81 4.398,-1.242 3.768,-1.675 2.989,-2.023 2.063,-2.289 1.135,-2.555 0.067,-2.688 -1.141,-2.688 c -1.531,0 -2.898,0.191 -4.101,0.571 -1.203,0.38 -2.219,0.937 -3.047,1.672 -0.828,0.734 -1.461,1.635 -1.899,2.703 -0.437,1.067 -0.656,2.284 -0.656,3.648 0,1.281 0.151,2.542 0.453,3.782 0.302,1.239 0.74,2.416 1.313,3.531 0.572,1.114 1.273,2.14 2.101,3.078 0.829,0.937 1.766,1.75 2.813,2.437 1.047,0.688 2.195,1.224 3.445,1.61 1.25,0.385 2.588,0.578 4.016,0.578 1.062,0 1.992,-0.091 2.789,-0.274 0.797,-0.182 1.458,-0.437 1.984,-0.765 0.526,-0.328 0.919,-0.73 1.18,-1.203 0.26,-0.474 0.391,-0.997 0.391,-1.571 0,-0.468 -0.116,-0.88 -0.344,-1.234 C 9.067,15.521 8.752,15.222 8.352,14.977 7.95,14.731 7.474,14.547 6.922,14.422 6.369,14.297 5.771,14.234 5.125,14.234 c 0,0.449 -0.031,0.943 -0.094,1.485 -0.062,0.542 -0.19,1.047 -0.383,1.515 -0.193,0.469 -0.466,0.86 -0.82,1.172 -0.354,0.313 -0.828,0.469 -1.422,0.469 -0.844,0 -1.623,-0.192 -2.336,-0.578 -0.714,-0.386 -1.365,-0.909 -1.953,-1.57 -0.589,-0.662 -1.109,-1.43 -1.562,-2.305 -0.453,-0.875 -0.834,-1.8 -1.141,-2.774 C -4.894,10.675 -5.128,9.68 -5.289,8.664 -5.451,7.648 -5.531,6.667 -5.531,5.719 c 0,-1.823 0.463,-3.232 1.39,-4.227 C -3.214,0.497 -1.834,0 0,0" /></g><g
           transform="translate(183.7202,48.292)"
           id="g96"><path
             id="path98"
             style="fill:#ffffff;fill-opacity:1;fill-rule:nonzero;stroke:none"
             d="m 0,0 1.984,0 c 0.677,0 1.31,0.099 1.899,0.297 0.588,0.198 1.098,0.508 1.531,0.93 0.432,0.421 0.773,0.968 1.023,1.64 0.25,0.672 0.375,1.487 0.375,2.445 0,0.719 -0.062,1.324 -0.187,1.813 C 6.5,7.614 6.307,8.013 6.047,8.32 5.786,8.628 5.458,8.847 5.062,8.977 4.666,9.106 4.203,9.172 3.672,9.172 l -1.625,0 L 0,0 Z m 4.641,11.063 c 2.551,0 4.458,-0.443 5.718,-1.329 C 11.619,8.849 12.25,7.511 12.25,5.719 12.25,4.636 12.075,3.714 11.727,2.953 11.377,2.192 10.93,1.555 10.383,1.039 9.836,0.523 9.224,0.114 8.547,-0.187 7.869,-0.489 7.203,-0.719 6.547,-0.875 l 2.219,-5.953 c 0.218,-0.605 0.431,-1.114 0.64,-1.531 0.208,-0.417 0.43,-0.753 0.664,-1.008 0.235,-0.255 0.49,-0.438 0.766,-0.547 0.275,-0.109 0.596,-0.164 0.961,-0.164 l 0.125,0 -0.344,-1.703 -0.328,0 c -1.115,0 -2.081,0.047 -2.898,0.14 -0.819,0.094 -1.519,0.274 -2.102,0.539 -0.584,0.266 -1.068,0.636 -1.453,1.11 -0.386,0.473 -0.698,1.091 -0.938,1.851 l -2.015,6.282 -2.203,0 -1.25,-5.86 C -1.693,-8.104 -1.75,-8.394 -1.781,-8.586 -1.812,-8.778 -1.828,-8.917 -1.828,-9 c 0,-0.229 0.057,-0.414 0.172,-0.555 0.114,-0.14 0.275,-0.25 0.484,-0.328 0.208,-0.078 0.455,-0.13 0.742,-0.156 0.286,-0.026 0.596,-0.039 0.93,-0.039 l 1.062,0 -0.359,-1.703 -11.641,0 0.344,1.703 0.422,0 c 0.333,0 0.658,0.02 0.977,0.062 0.317,0.042 0.606,0.13 0.867,0.266 0.26,0.136 0.486,0.328 0.68,0.578 0.192,0.25 0.33,0.583 0.414,1 l 3.265,15.359 c 0.135,0.552 0.203,0.917 0.203,1.094 0,0.23 -0.057,0.417 -0.172,0.563 -0.115,0.145 -0.273,0.258 -0.476,0.336 -0.203,0.078 -0.448,0.13 -0.734,0.156 -0.288,0.026 -0.597,0.039 -0.93,0.039 l -0.406,0 0.343,1.688 10.282,0 z" /></g><g
           transform="translate(210.4702,51.3545)"
           id="g100"><path
             id="path102"
             style="fill:#ffffff;fill-opacity:1;fill-rule:nonzero;stroke:none"
             d="M 0,0 C -0.053,0.469 -0.102,0.909 -0.148,1.32 -0.195,1.731 -0.237,2.13 -0.273,2.516 -0.311,2.901 -0.342,3.276 -0.367,3.641 -0.394,4.005 -0.412,4.38 -0.422,4.766 -0.578,4.38 -0.734,4.023 -0.891,3.695 -1.047,3.367 -1.214,3.034 -1.391,2.695 -1.568,2.356 -1.764,1.997 -1.977,1.617 -2.19,1.237 -2.438,0.797 -2.719,0.297 l -3.172,-5.672 6.469,0 L 0,0 Z m -6.984,-7.328 -1.563,-2.875 c -0.209,-0.386 -0.362,-0.724 -0.461,-1.016 -0.099,-0.292 -0.148,-0.552 -0.148,-0.781 0,-0.396 0.145,-0.685 0.437,-0.867 0.291,-0.183 0.744,-0.274 1.36,-0.274 l 0.64,0 -0.359,-1.703 -8.313,0 0.344,1.703 0.672,0 c 0.292,0 0.549,0.035 0.773,0.102 0.224,0.067 0.44,0.195 0.649,0.383 0.208,0.187 0.424,0.442 0.648,0.765 0.224,0.324 0.482,0.735 0.774,1.235 L -0.672,8 3.703,8 6.391,-10.844 c 0.051,-0.333 0.122,-0.64 0.211,-0.922 0.087,-0.281 0.205,-0.523 0.351,-0.726 0.146,-0.203 0.33,-0.362 0.555,-0.477 0.223,-0.114 0.502,-0.172 0.836,-0.172 l 0.578,0 -0.344,-1.703 -10.562,0 0.343,1.703 0.735,0 c 0.687,0 1.234,0.107 1.64,0.321 0.407,0.214 0.61,0.554 0.61,1.023 0,0.177 -0.006,0.352 -0.016,0.524 -0.011,0.171 -0.026,0.335 -0.047,0.492 l -0.484,3.453 -7.781,0 z" /></g><g
           transform="translate(222.1421,36.5107)"
           id="g104"><path
             id="path106"
             style="fill:#ffffff;fill-opacity:1;fill-rule:nonzero;stroke:none"
             d="m 0,0 0.359,1.703 0.407,0 c 0.333,0 0.658,0.021 0.976,0.063 0.318,0.042 0.607,0.13 0.867,0.265 0.26,0.136 0.487,0.328 0.68,0.578 0.192,0.25 0.336,0.583 0.43,1 l 3.609,17.282 -2.562,0 c -0.5,0 -0.925,-0.063 -1.274,-0.188 C 3.143,20.578 2.841,20.394 2.586,20.148 2.33,19.903 2.114,19.604 1.937,19.25 1.76,18.896 1.594,18.484 1.437,18.016 l -0.453,-1.375 -2.14,0 1.468,6.203 19.907,0 -1.11,-6.203 -2.156,0 c 0.01,0.073 0.028,0.237 0.055,0.492 0.025,0.255 0.054,0.528 0.086,0.82 0.031,0.292 0.059,0.56 0.086,0.805 0.025,0.245 0.039,0.393 0.039,0.445 0,0.563 -0.17,0.984 -0.508,1.266 -0.339,0.281 -0.92,0.422 -1.742,0.422 l -2.547,0 L 8.734,3.516 C 8.713,3.401 8.688,3.271 8.656,3.125 8.625,2.979 8.609,2.864 8.609,2.781 8.609,2.552 8.666,2.367 8.781,2.227 8.896,2.086 9.057,1.977 9.266,1.898 9.474,1.82 9.721,1.769 10.008,1.742 10.294,1.716 10.604,1.703 10.938,1.703 l 0.421,0 L 11.016,0 0,0 Z" /></g><g
           transform="translate(261.6113,51.4795)"
           id="g108"><path
             id="path110"
             style="fill:#ffffff;fill-opacity:1;fill-rule:nonzero;stroke:none"
             d="m 0,0 -4.062,0 -3.032,-14.297 c -0.24,-1.135 -0.55,-2.13 -0.929,-2.984 -0.381,-0.854 -0.808,-1.591 -1.282,-2.211 -0.474,-0.619 -0.987,-1.133 -1.539,-1.539 -0.553,-0.406 -1.12,-0.729 -1.703,-0.969 -0.584,-0.239 -1.177,-0.408 -1.782,-0.508 -0.603,-0.098 -1.192,-0.148 -1.765,-0.148 -0.156,0 -0.328,0.008 -0.516,0.023 -0.187,0.016 -0.369,0.037 -0.547,0.063 -0.176,0.026 -0.343,0.054 -0.5,0.086 -0.156,0.031 -0.286,0.062 -0.39,0.093 l 0.39,1.86 c 0.178,-0.052 0.407,-0.104 0.688,-0.156 0.281,-0.052 0.542,-0.079 0.781,-0.079 0.521,0 0.982,0.089 1.383,0.266 0.401,0.178 0.761,0.477 1.078,0.898 0.317,0.422 0.603,0.988 0.859,1.696 0.255,0.709 0.493,1.594 0.711,2.656 L -8.922,0 l -2.907,0 0.313,1.516 3.078,0.672 0.25,1.187 c 0.251,1.052 0.584,1.972 1.001,2.758 0.416,0.786 0.931,1.442 1.546,1.969 0.615,0.526 1.336,0.919 2.164,1.179 0.829,0.261 1.784,0.391 2.868,0.391 0.822,0 1.548,-0.073 2.179,-0.219 C 2.2,9.308 2.727,9.109 3.148,8.859 3.57,8.609 3.888,8.315 4.102,7.977 4.314,7.638 4.422,7.276 4.422,6.891 4.422,6.183 4.109,5.63 3.484,5.234 2.859,4.839 1.947,4.641 0.75,4.641 0.75,5.047 0.727,5.44 0.68,5.82 0.633,6.2 0.552,6.536 0.437,6.828 0.322,7.12 0.172,7.352 -0.016,7.523 -0.203,7.695 -0.443,7.781 -0.734,7.781 -1.412,7.781 -1.93,7.489 -2.289,6.906 -2.648,6.323 -2.938,5.433 -3.156,4.234 l -0.422,-2.046 4.031,0 L 0,0 Z" /></g><g
           transform="translate(269.5801,38.4951)"
           id="g112"><path
             id="path114"
             style="fill:#ffffff;fill-opacity:1;fill-rule:nonzero;stroke:none"
             d="m 0,0 c 0.572,0 1.091,0.164 1.555,0.492 0.463,0.328 0.88,0.761 1.25,1.297 0.369,0.536 0.689,1.149 0.961,1.836 0.27,0.687 0.492,1.396 0.664,2.125 0.172,0.729 0.301,1.445 0.39,2.148 0.088,0.704 0.133,1.336 0.133,1.899 0,1.261 -0.217,2.167 -0.648,2.719 -0.433,0.551 -1.024,0.828 -1.774,0.828 -0.542,0 -1.042,-0.156 -1.5,-0.469 C 0.572,12.563 0.158,12.146 -0.211,11.625 -0.581,11.104 -0.906,10.508 -1.187,9.836 -1.469,9.164 -1.706,8.469 -1.898,7.75 -2.092,7.031 -2.234,6.315 -2.328,5.602 -2.422,4.888 -2.469,4.234 -2.469,3.641 -2.469,2.339 -2.25,1.406 -1.812,0.844 -1.375,0.281 -0.771,0 0,0 m -7.359,4.422 c 0,0.802 0.093,1.63 0.281,2.484 0.187,0.855 0.471,1.693 0.851,2.516 0.38,0.823 0.857,1.601 1.43,2.336 0.572,0.734 1.247,1.378 2.024,1.93 0.775,0.551 1.656,0.989 2.64,1.312 0.985,0.323 2.075,0.484 3.274,0.484 0.916,0 1.781,-0.128 2.593,-0.382 C 6.547,14.847 7.255,14.448 7.859,13.906 8.463,13.364 8.942,12.669 9.297,11.82 9.65,10.972 9.828,9.953 9.828,8.766 9.828,7.995 9.739,7.187 9.563,6.344 9.385,5.5 9.111,4.669 8.742,3.852 8.372,3.034 7.903,2.253 7.336,1.508 6.768,0.763 6.099,0.109 5.328,-0.453 4.557,-1.016 3.682,-1.464 2.703,-1.797 c -0.979,-0.333 -2.073,-0.5 -3.281,-0.5 -1,0 -1.917,0.139 -2.75,0.414 -0.834,0.277 -1.547,0.693 -2.141,1.25 -0.593,0.558 -1.057,1.258 -1.39,2.102 -0.334,0.844 -0.5,1.828 -0.5,2.953" /></g><g
           transform="translate(284.8145,50.8545)"
           id="g116"><path
             id="path118"
             style="fill:#ffffff;fill-opacity:1;fill-rule:nonzero;stroke:none"
             d="m 0,0 c 0,0.396 -0.131,0.68 -0.391,0.852 -0.26,0.171 -0.693,0.257 -1.296,0.257 l -0.579,0 0.282,1.704 7.078,0 -0.672,-4.391 0.156,0 c 0.364,0.77 0.732,1.448 1.102,2.031 0.369,0.583 0.775,1.073 1.218,1.469 0.443,0.395 0.946,0.695 1.508,0.898 0.563,0.203 1.219,0.305 1.969,0.305 1.135,0 1.979,-0.214 2.531,-0.641 0.552,-0.426 0.828,-1.047 0.828,-1.859 0,-1.104 -0.323,-1.927 -0.968,-2.469 -0.647,-0.542 -1.584,-0.812 -2.813,-0.812 0,0.479 -0.023,0.914 -0.07,1.304 -0.047,0.391 -0.131,0.724 -0.25,1 C 9.513,-0.075 9.352,0.136 9.148,0.281 8.945,0.427 8.692,0.5 8.391,0.5 8.088,0.5 7.771,0.378 7.437,0.133 7.104,-0.112 6.771,-0.448 6.437,-0.875 6.104,-1.302 5.778,-1.81 5.461,-2.398 5.143,-2.987 4.838,-3.628 4.547,-4.32 4.255,-5.013 3.989,-5.739 3.75,-6.5 3.51,-7.261 3.307,-8.031 3.141,-8.813 l -1.219,-5.531 -4.828,0 2.719,12.86 c 0.031,0.176 0.07,0.411 0.117,0.703 C -0.023,-0.489 0,-0.229 0,0" /></g><g
           transform="translate(315.0176,36.1982)"
           id="g120"><path
             id="path122"
             style="fill:#ffffff;fill-opacity:1;fill-rule:nonzero;stroke:none"
             d="m 0,0 c -1.323,0 -2.479,0.12 -3.469,0.359 -0.99,0.24 -1.812,0.568 -2.468,0.985 -0.657,0.417 -1.149,0.909 -1.477,1.476 -0.328,0.568 -0.492,1.185 -0.492,1.852 0,0.5 0.101,0.937 0.304,1.312 0.204,0.375 0.49,0.688 0.86,0.938 0.369,0.25 0.806,0.437 1.312,0.562 0.505,0.125 1.065,0.188 1.68,0.188 0,-0.98 0.104,-1.828 0.312,-2.547 0.209,-0.719 0.5,-1.315 0.875,-1.789 0.375,-0.474 0.823,-0.825 1.344,-1.055 0.521,-0.229 1.094,-0.344 1.719,-0.344 0.604,0 1.141,0.086 1.609,0.258 0.469,0.172 0.868,0.407 1.196,0.703 0.328,0.297 0.578,0.646 0.75,1.047 0.172,0.402 0.257,0.831 0.257,1.289 0,0.449 -0.054,0.86 -0.164,1.235 C 4.039,6.844 3.838,7.208 3.547,7.562 3.255,7.917 2.854,8.276 2.344,8.641 1.833,9.005 1.177,9.406 0.375,9.844 c -0.834,0.458 -1.565,0.929 -2.195,1.414 -0.631,0.484 -1.157,1.008 -1.578,1.57 -0.422,0.563 -0.741,1.18 -0.954,1.852 -0.213,0.672 -0.32,1.429 -0.32,2.273 0,0.958 0.193,1.839 0.578,2.641 0.385,0.802 0.938,1.492 1.656,2.07 0.719,0.578 1.588,1.026 2.61,1.344 1.02,0.317 2.166,0.476 3.437,0.476 1.188,0 2.224,-0.093 3.11,-0.281 0.885,-0.187 1.622,-0.442 2.211,-0.766 0.588,-0.323 1.028,-0.703 1.32,-1.14 0.291,-0.438 0.438,-0.906 0.438,-1.406 0,-0.865 -0.329,-1.544 -0.985,-2.039 -0.656,-0.496 -1.729,-0.743 -3.219,-0.743 0,0.48 -0.047,0.98 -0.14,1.5 -0.094,0.521 -0.261,0.997 -0.5,1.43 -0.24,0.433 -0.563,0.789 -0.969,1.07 C 4.469,21.391 3.953,21.531 3.328,21.531 2.9,21.531 2.477,21.464 2.055,21.328 1.633,21.192 1.255,20.989 0.922,20.719 0.588,20.448 0.317,20.106 0.109,19.695 -0.1,19.284 -0.203,18.797 -0.203,18.234 c 0,-0.562 0.088,-1.042 0.265,-1.437 C 0.239,16.401 0.505,16.034 0.859,15.695 1.213,15.356 1.656,15.028 2.188,14.711 2.719,14.394 3.344,14.042 4.062,13.656 5.677,12.781 6.869,11.815 7.641,10.758 8.411,9.7 8.797,8.489 8.797,7.125 8.797,5.989 8.591,4.979 8.18,4.094 7.768,3.208 7.18,2.464 6.414,1.859 5.648,1.255 4.724,0.794 3.641,0.477 2.557,0.159 1.344,0 0,0" /></g><g
           transform="translate(325.0176,38.2139)"
           id="g124"><path
             id="path126"
             style="fill:#ffffff;fill-opacity:1;fill-rule:nonzero;stroke:none"
             d="m 0,0 0.422,0 c 0.333,0 0.658,0.021 0.976,0.062 0.318,0.042 0.607,0.13 0.868,0.266 0.259,0.136 0.486,0.328 0.679,0.578 0.193,0.25 0.33,0.583 0.414,1 l 3.328,15.719 c 0.042,0.114 0.076,0.245 0.102,0.391 0.025,0.145 0.039,0.26 0.039,0.343 0,0.23 -0.057,0.417 -0.172,0.563 -0.115,0.145 -0.273,0.258 -0.476,0.336 -0.203,0.078 -0.449,0.13 -0.735,0.156 -0.287,0.026 -0.596,0.039 -0.929,0.039 l -0.407,0 0.344,1.688 17.375,0 -1.125,-5.953 -2.266,0 c 0.01,0.073 0.024,0.203 0.04,0.39 0.015,0.188 0.031,0.383 0.046,0.586 0.016,0.203 0.032,0.391 0.047,0.563 0.016,0.171 0.024,0.278 0.024,0.32 0,0.292 -0.042,0.567 -0.125,0.828 -0.084,0.261 -0.214,0.489 -0.391,0.687 -0.178,0.199 -0.409,0.352 -0.695,0.461 -0.287,0.11 -0.639,0.164 -1.055,0.164 l -4.25,0 -1.703,-7.999 7.266,0 -0.422,-1.922 -7.266,0 -1.922,-9.016 5.063,0 c 0.5,0 0.947,0.07 1.344,0.211 0.395,0.141 0.739,0.331 1.031,0.57 0.291,0.24 0.539,0.519 0.742,0.836 0.203,0.318 0.367,0.654 0.492,1.008 l 0.516,1.375 2.281,0 -1.484,-5.953 -18.36,0 L 0,0 Z" /></g><g
           transform="translate(362.752,36.5107)"
           id="g128"><path
             id="path130"
             style="fill:#ffffff;fill-opacity:1;fill-rule:nonzero;stroke:none"
             d="M 0,0 -8.672,18.109 -11.688,3.781 c -0.052,-0.239 -0.091,-0.445 -0.117,-0.617 -0.026,-0.172 -0.039,-0.3 -0.039,-0.383 0,-0.229 0.057,-0.414 0.172,-0.554 0.114,-0.141 0.276,-0.25 0.484,-0.329 0.209,-0.078 0.456,-0.129 0.743,-0.156 0.286,-0.026 0.595,-0.039 0.929,-0.039 l 0.11,0 -0.36,-1.703 -8.062,0 0.344,1.703 0.422,0 c 0.333,0 0.658,0.021 0.976,0.063 0.317,0.042 0.607,0.13 0.867,0.265 0.26,0.136 0.487,0.328 0.68,0.578 0.192,0.25 0.33,0.583 0.414,1 l 3.266,15.36 c 0.134,0.552 0.203,0.917 0.203,1.093 0,0.23 -0.058,0.417 -0.172,0.563 -0.115,0.146 -0.274,0.258 -0.477,0.336 -0.203,0.078 -0.448,0.13 -0.734,0.156 -0.287,0.027 -0.597,0.039 -0.93,0.039 l -0.406,0 0.344,1.688 7.109,0 7.797,-16.407 2.687,12.641 c 0.115,0.489 0.172,0.818 0.172,0.984 0,0.23 -0.06,0.417 -0.179,0.563 -0.12,0.146 -0.284,0.258 -0.493,0.336 -0.208,0.078 -0.456,0.13 -0.742,0.156 -0.287,0.027 -0.596,0.039 -0.929,0.039 l -0.094,0 0.359,1.688 8.063,0 -0.36,-1.688 -0.406,0 c -0.334,0 -0.659,-0.023 -0.976,-0.07 C 8.658,21.039 8.369,20.948 8.109,20.812 7.849,20.677 7.622,20.484 7.43,20.234 7.236,19.984 7.094,19.651 7,19.234 L 2.938,0 0,0 Z" /></g><g
           transform="translate(384.7051,51.3545)"
           id="g132"><path
             id="path134"
             style="fill:#ffffff;fill-opacity:1;fill-rule:nonzero;stroke:none"
             d="M 0,0 C -0.053,0.469 -0.102,0.909 -0.148,1.32 -0.195,1.731 -0.237,2.13 -0.273,2.516 -0.311,2.901 -0.342,3.276 -0.367,3.641 -0.394,4.005 -0.412,4.38 -0.422,4.766 -0.578,4.38 -0.734,4.023 -0.891,3.695 -1.047,3.367 -1.214,3.034 -1.391,2.695 -1.568,2.356 -1.764,1.997 -1.977,1.617 -2.19,1.237 -2.438,0.797 -2.719,0.297 l -3.172,-5.672 6.469,0 L 0,0 Z m -6.984,-7.328 -1.563,-2.875 c -0.209,-0.386 -0.362,-0.724 -0.461,-1.016 -0.099,-0.292 -0.148,-0.552 -0.148,-0.781 0,-0.396 0.145,-0.685 0.437,-0.867 0.291,-0.183 0.744,-0.274 1.36,-0.274 l 0.64,0 -0.359,-1.703 -8.313,0 0.344,1.703 0.672,0 c 0.292,0 0.549,0.035 0.773,0.102 0.224,0.067 0.44,0.195 0.649,0.383 0.208,0.187 0.424,0.442 0.648,0.765 0.224,0.324 0.482,0.735 0.774,1.235 L -0.672,8 3.703,8 6.391,-10.844 c 0.051,-0.333 0.122,-0.64 0.211,-0.922 0.087,-0.281 0.205,-0.523 0.351,-0.726 0.146,-0.203 0.33,-0.362 0.555,-0.477 0.223,-0.114 0.502,-0.172 0.836,-0.172 l 0.578,0 -0.344,-1.703 -10.562,0 0.343,1.703 0.735,0 c 0.687,0 1.234,0.107 1.64,0.321 0.407,0.214 0.61,0.554 0.61,1.023 0,0.177 -0.006,0.352 -0.016,0.524 -0.011,0.171 -0.026,0.335 -0.047,0.492 l -0.484,3.453 -7.781,0 z" /></g><g
           transform="translate(396.377,36.5107)"
           id="g136"><path
             id="path138"
             style="fill:#ffffff;fill-opacity:1;fill-rule:nonzero;stroke:none"
             d="m 0,0 0.359,1.703 0.407,0 c 0.333,0 0.658,0.021 0.976,0.063 0.318,0.042 0.607,0.13 0.867,0.265 0.26,0.136 0.487,0.328 0.68,0.578 0.192,0.25 0.336,0.583 0.43,1 l 3.609,17.282 -2.562,0 c -0.5,0 -0.925,-0.063 -1.274,-0.188 C 3.143,20.578 2.841,20.394 2.586,20.148 2.33,19.903 2.114,19.604 1.937,19.25 1.76,18.896 1.594,18.484 1.437,18.016 l -0.453,-1.375 -2.14,0 1.468,6.203 19.907,0 -1.11,-6.203 -2.156,0 c 0.01,0.073 0.028,0.237 0.055,0.492 0.025,0.255 0.054,0.528 0.086,0.82 0.031,0.292 0.059,0.56 0.086,0.805 0.025,0.245 0.039,0.393 0.039,0.445 0,0.563 -0.17,0.984 -0.508,1.266 -0.339,0.281 -0.92,0.422 -1.742,0.422 l -2.547,0 L 8.734,3.516 C 8.713,3.401 8.688,3.271 8.656,3.125 8.625,2.979 8.609,2.864 8.609,2.781 8.609,2.552 8.666,2.367 8.781,2.227 8.896,2.086 9.057,1.977 9.266,1.898 9.474,1.82 9.721,1.769 10.008,1.742 10.294,1.716 10.604,1.703 10.938,1.703 l 0.421,0 L 11.016,0 0,0 Z" /></g><g
           transform="translate(413.5488,38.2139)"
           id="g140"><path
             id="path142"
             style="fill:#ffffff;fill-opacity:1;fill-rule:nonzero;stroke:none"
             d="m 0,0 0.422,0 c 0.333,0 0.658,0.021 0.976,0.062 0.318,0.042 0.607,0.13 0.868,0.266 0.259,0.136 0.486,0.328 0.679,0.578 0.193,0.25 0.33,0.583 0.414,1 l 3.328,15.719 c 0.042,0.114 0.076,0.245 0.102,0.391 0.025,0.145 0.039,0.26 0.039,0.343 0,0.23 -0.057,0.417 -0.172,0.563 -0.115,0.145 -0.273,0.258 -0.476,0.336 -0.203,0.078 -0.449,0.13 -0.735,0.156 -0.287,0.026 -0.596,0.039 -0.929,0.039 l -0.407,0 0.344,1.688 17.375,0 -1.125,-5.953 -2.266,0 c 0.01,0.073 0.024,0.203 0.04,0.39 0.015,0.188 0.031,0.383 0.046,0.586 0.016,0.203 0.032,0.391 0.047,0.563 0.016,0.171 0.024,0.278 0.024,0.32 0,0.292 -0.042,0.567 -0.125,0.828 -0.084,0.261 -0.214,0.489 -0.391,0.687 -0.178,0.199 -0.409,0.352 -0.695,0.461 -0.287,0.11 -0.639,0.164 -1.055,0.164 l -4.25,0 -1.703,-7.999 7.266,0 -0.422,-1.922 -7.266,0 -1.922,-9.016 5.063,0 c 0.5,0 0.947,0.07 1.344,0.211 0.395,0.141 0.739,0.331 1.031,0.57 0.291,0.24 0.539,0.519 0.742,0.836 0.203,0.318 0.367,0.654 0.492,1.008 l 0.516,1.375 2.281,0 -1.484,-5.953 -18.36,0 L 0,0 Z" /></g></g></g></g></svg>